<svg width="455" height="350" viewBox="0 0 455 350" fill="none" xmlns="http://www.w3.org/2000/svg">
<path d="M185.844 218.202C187.644 220.152 195.055 216.751 200.905 214.024C205.289 211.987 222.831 204.79 231.55 201.056C233.905 200.049 237.329 198.734 239.794 195.492C241.982 192.606 247.784 180.351 236.1 167.938C224.242 155.334 212.027 158.814 207.461 162.048C204.774 163.951 202.586 168.239 201.603 170.419C197.449 179.63 191.528 196.506 189.118 203.141C187.35 208.032 184.061 216.268 185.844 218.202Z" fill="#FFC107"/>
<path d="M200.43 173.193C200.541 174.573 200.818 176.816 201.769 181.136C202.419 184.101 203.481 187.208 204.346 189.261C206.938 195.436 210.576 197.925 214.262 199.923C220.524 203.315 224.781 203.949 224.781 203.949L219.676 206.034C219.676 206.034 216.585 205.392 212.367 203.315C208.349 201.334 204.163 197.981 201.103 191.417C199.78 188.571 199.011 185.813 198.567 183.625C198.02 180.914 197.933 179.376 197.933 179.376L200.43 173.193ZM194.16 189.269C194.16 189.269 194.794 194.413 199.042 200.906C204.021 208.499 210.972 209.744 210.972 209.744L206.351 211.646C206.351 211.646 201.191 210.069 196.284 203.371C193.224 199.193 192.368 194.199 192.368 194.199L194.16 189.269ZM189.76 201.46C189.76 201.46 190.917 205.899 193.454 209.213C196.474 213.168 200.319 214.318 200.319 214.318L196.775 215.887C196.775 215.887 194.088 215.324 191.147 211.599C188.912 208.769 188.278 205.519 188.278 205.519L189.76 201.46Z" fill="#FF8F00"/>
<path opacity="0.44" d="M187.834 212.732C187.676 212.375 187.676 211.971 187.842 211.622L208.032 169.753L211.353 182.238L190.109 212.922C189.539 213.779 188.254 213.668 187.834 212.732Z" fill="#FFFDE7"/>
<path d="M212.954 186.431C222.387 197.465 233.128 196.086 236.703 193.296C240.286 190.498 243.116 180.882 233.723 170.03C223.878 158.663 212.732 161.905 210.156 164.363C207.58 166.82 204.298 176.309 212.954 186.431Z" fill="url(#paint0_linear_474_208)"/>
<defs>
<linearGradient id="paint0_linear_474_208" x1="238.902" y1="169.507" x2="215.306" y2="183.664" gradientUnits="userSpaceOnUse">
<stop offset="0.024" stop-color="#8F4700"/>
<stop offset="1" stop-color="#703E2D"/>
</linearGradient>
</defs>
</svg>
